<svg xmlns="http://www.w3.org/2000/svg" viewBox="0 0 86 86"><defs><style>.cls-1{fill:#2c2c42;}.cls-2{fill:#fff;}</style></defs><title>vs</title><g id="Layer_2" data-name="Layer 2"><g id="Layer_1-2" data-name="Layer 1"><circle class="cls-1" cx="43" cy="43" r="43"/><path class="cls-2" d="M44.63,32.86,36.37,58.05h-8L20.14,32.86h7.65l3.43,12.77c.13.48.27,1.1.44,1.85s.32,1.5.47,2.25a15.86,15.86,0,0,1,.26,1.83c0-.48.13-1.08.26-1.81s.27-1.48.42-2.22.31-1.35.44-1.83L37,32.86Z"/><path class="cls-2" d="M63.83,50.4a7.82,7.82,0,0,1-1,3.89,7.61,7.61,0,0,1-3.21,3A12.12,12.12,0,0,1,54,58.4a24.37,24.37,0,0,1-3-.16,13.27,13.27,0,0,1-2.42-.5,18.82,18.82,0,0,1-2.33-.93V50.75a20.76,20.76,0,0,0,4.14,1.57,14.73,14.73,0,0,0,3.77.55,4.82,4.82,0,0,0,1.66-.24,2.14,2.14,0,0,0,1-.67A1.56,1.56,0,0,0,57,51a1.48,1.48,0,0,0-.46-1.11,5.47,5.47,0,0,0-1.45-1c-.67-.33-1.55-.75-2.64-1.24A26.52,26.52,0,0,1,50,46.33,8.17,8.17,0,0,1,48,44.76a6.22,6.22,0,0,1-1.24-2.08,8.43,8.43,0,0,1-.43-2.81,6.75,6.75,0,0,1,1.2-4.08,7.26,7.26,0,0,1,3.34-2.47,13.79,13.79,0,0,1,5-.82,16.45,16.45,0,0,1,4.44.55,24.68,24.68,0,0,1,3.54,1.25l-2.09,5.26a21.79,21.79,0,0,0-3.19-1.18,10.89,10.89,0,0,0-2.91-.44,4,4,0,0,0-1.44.22,1.72,1.72,0,0,0-.82.57,1.35,1.35,0,0,0-.27.83,1.44,1.44,0,0,0,.46,1,5.8,5.8,0,0,0,1.53,1Q56.18,42.16,58,43a16.54,16.54,0,0,1,3.13,1.78,6.54,6.54,0,0,1,2,2.29A7.26,7.26,0,0,1,63.83,50.4Z"/></g></g></svg>