<svg xmlns="http://www.w3.org/2000/svg" viewBox="0 0 1920.33 199.95"><defs><style>.cls-1{fill:#fff;}</style></defs><title>bottom</title><g id="Layer_2" data-name="Layer 2"><g id="Layer_1-2" data-name="Layer 1"><path class="cls-1" d="M1858.59,200H61.41A61.4,61.4,0,0,1,0,138.54V62.36A91.82,91.82,0,0,1,4.79,41a79.17,79.17,0,0,1,13.2-22C59.73-29.81,283,31,283,31c110.13,30,207.42,37,402,51,189.06,13.62,171.51-21.67,443-25,314.5-3.86,305.71,43.89,485,13,125.39-21.61,280.2-70.89,304.24-25.86,3.43,6.43,3.4,13.29,2.76,18.27v76.18A61.4,61.4,0,0,1,1858.59,200Z"/></g></g></svg>