<svg xmlns="http://www.w3.org/2000/svg" viewBox="0 0 240.36 70.8"><defs><style>.cls-1{fill:#2c2c42;}.cls-2{fill:#fff;}.cls-3{fill:#e2a583;}</style></defs><title>logodark</title><g id="Layer_2" data-name="Layer 2"><g id="Layer_1-2" data-name="Layer 1"><rect class="cls-1" width="240.36" height="70.8" rx="8.11" ry="8.11"/><path class="cls-2" d="M45.91,31a7.3,7.3,0,0,1,2.84,3.3V30.07h7.11V53.39H48.75V49.17a7.3,7.3,0,0,1-2.84,3.3,8.47,8.47,0,0,1-4.6,1.22,9.36,9.36,0,0,1-5.16-1.45,9.83,9.83,0,0,1-3.6-4.16,14.38,14.38,0,0,1-1.32-6.35,14.32,14.32,0,0,1,1.32-6.37,9.89,9.89,0,0,1,3.6-4.14,9.43,9.43,0,0,1,5.16-1.44A8.46,8.46,0,0,1,45.91,31Zm-6,6.56a5.87,5.87,0,0,0-1.4,4.18,5.87,5.87,0,0,0,1.4,4.18,5.26,5.26,0,0,0,7.4,0,5.83,5.83,0,0,0,1.44-4.14,5.81,5.81,0,0,0-1.44-4.16A4.86,4.86,0,0,0,43.61,36,4.82,4.82,0,0,0,39.91,37.55Z"/><path class="cls-2" d="M82,32.49a10.77,10.77,0,0,1,2.36,7.36V53.39H77.17V40.68A5.13,5.13,0,0,0,75.94,37a4.28,4.28,0,0,0-3.28-1.32,4.47,4.47,0,0,0-3.45,1.38A5.58,5.58,0,0,0,67.94,41V53.39H60.79V30.07h7.15v4.26a7.67,7.67,0,0,1,3-3.3,8.78,8.78,0,0,1,4.67-1.21A8.07,8.07,0,0,1,82,32.49Z"/><path class="cls-2" d="M89.55,20.81a5,5,0,0,1,6.18,0,3.64,3.64,0,0,1,0,5.35,5,5,0,0,1-6.18,0,3.64,3.64,0,0,1,0-5.35Zm6.64,9.26V53.39H89.05V30.07Z"/><path class="cls-2" d="M138.12,32.47a10.45,10.45,0,0,1,2.47,7.38V53.39h-7.11V40.68a4.76,4.76,0,0,0-1.19-3.44A4.29,4.29,0,0,0,129.05,36a4.41,4.41,0,0,0-3.37,1.32,5.21,5.21,0,0,0-1.23,3.7V53.39H117.3V40.68a4.8,4.8,0,0,0-1.17-3.44A4.2,4.2,0,0,0,112.91,36a4.49,4.49,0,0,0-3.38,1.3A5.11,5.11,0,0,0,108.27,41V53.39h-7.14V30.07h7.14v4a7.1,7.1,0,0,1,2.82-3.1,8.61,8.61,0,0,1,4.46-1.12,9,9,0,0,1,4.72,1.23,7.67,7.67,0,0,1,3.09,3.53,9.4,9.4,0,0,1,3.33-3.47,9.6,9.6,0,0,1,11.43,1.36Z"/><path class="cls-2" d="M180.84,22.46V53.39h-7.15V22.46Z"/><path class="cls-2" d="M201.34,32a9.67,9.67,0,0,1,3.33,5.85H198a3.74,3.74,0,0,0-1.32-2.23,4,4,0,0,0-2.57-.82,2.8,2.8,0,0,0-1.84.52,1.83,1.83,0,0,0-.62,1.49,1.74,1.74,0,0,0,1.14,1.63,18.65,18.65,0,0,0,3.62,1.08,36.59,36.59,0,0,1,4.39,1.28,7.32,7.32,0,0,1,3,2.11A5.88,5.88,0,0,1,205,46.83a6,6,0,0,1-1.09,3.55,7.14,7.14,0,0,1-3.13,2.43,12.35,12.35,0,0,1-4.85.88,12.53,12.53,0,0,1-7.57-2.09,8.82,8.82,0,0,1-3.46-6h6.89a3.11,3.11,0,0,0,1.28,2.3,4.79,4.79,0,0,0,2.86.79,2.7,2.7,0,0,0,1.84-.56,1.91,1.91,0,0,0,.63-1.49,1.79,1.79,0,0,0-1.15-1.73,21.23,21.23,0,0,0-3.74-1.11,29.59,29.59,0,0,1-4.27-1.17,7,7,0,0,1-2.88-2,5.63,5.63,0,0,1-1.21-3.82,6.23,6.23,0,0,1,2.38-5.08c1.59-1.3,3.83-1.94,6.73-1.94A10.68,10.68,0,0,1,201.34,32Z"/><path class="cls-3" d="M146.27,47a3.61,3.61,0,0,1,2.36-2.59A14.41,14.41,0,0,0,152,42.68c1.55-1.08,2.22-2,3.85-2.31a5.17,5.17,0,0,1,2.74.25,4.7,4.7,0,0,1,2.1,1.57c1,1.38.3,2.4.65,5.47.32,2.84,1,3.18.59,4.29a4.57,4.57,0,0,1-5,2.31c-1.17-.33-1.22-1.14-2.76-1.67-1.35-.47-1.82,0-3.13-.24-2.06-.33-4.68-2-4.89-4.31A3.3,3.3,0,0,1,146.27,47Z"/><path class="cls-3" d="M148.79,33.92c-1.45-.18-3,1.78-3.54,3.55s-.39,4.29,1.4,5.16a3.67,3.67,0,0,0,3.4,0,3.19,3.19,0,0,0,1.14-1.77C152,38.17,150.73,34.16,148.79,33.92Z"/><path class="cls-3" d="M157.19,28.87a2.3,2.3,0,0,0-1,.35c-1.59.92-3.23,1.19-3.9,3.19s-1.3,5,1,6A4.1,4.1,0,0,0,158.49,36c.61-1.65,2.18-5.18.8-6.43A2.64,2.64,0,0,0,157.19,28.87Z"/><path class="cls-3" d="M165.85,31.87a2.42,2.42,0,0,0-3.38.23,8.8,8.8,0,0,0-1.4,2.48c-1.68,4.27-.38,5.65,1,6.73s4.41-.48,5.13-2.77C167.8,36.55,167.93,33.63,165.85,31.87Z"/><path class="cls-3" d="M165.24,42.39c-1.58,2-2.73,2.3-1.78,5.3s5.41.31,6.09-.68a7.33,7.33,0,0,0,.92-4.78,2.15,2.15,0,0,0-3-1.58A6.75,6.75,0,0,0,165.24,42.39Z"/><path class="cls-3" d="M28.26,18.48,28,19.71h1.78v1.87H27.69l-.54,2.88h-2l.54-2.88H24.47L24,24.46H22l.53-2.88H20.86V19.71h2l.23-1.23H21.35V16.57h2.12L24,13.7h2l-.55,2.87h1.22l.53-2.87h2l-.54,2.87h1.68v1.91Zm-3.42,1.23h1.22l.22-1.23H25.06Z"/><path class="cls-2" d="M35.64,22.33A4.27,4.27,0,0,0,37,22.05v2.09a5.22,5.22,0,0,1-1.1.36,6.34,6.34,0,0,1-1.24.11,2.72,2.72,0,0,1-2.09-.71A3.22,3.22,0,0,1,32,21.72V18.28H31V17.11l1.28-.91L33,14.45h1.88v1.67h2v2.16h-2v3.24Q34.86,22.33,35.64,22.33Z"/><path class="cls-2" d="M42.52,24.61a4.49,4.49,0,0,1-3.24-1.11,4.16,4.16,0,0,1-1.15-3.15,4.54,4.54,0,0,1,1.07-3.24,4,4,0,0,1,3-1.13,4,4,0,0,1,2.91,1,3.71,3.71,0,0,1,1,2.83v1.28H41a1.42,1.42,0,0,0,.51,1.09,2,2,0,0,0,1.31.4,6.78,6.78,0,0,0,1.4-.14,7.46,7.46,0,0,0,1.38-.49V24a5.28,5.28,0,0,1-1.4.48A10.58,10.58,0,0,1,42.52,24.61Zm-.17-6.68a1.21,1.21,0,0,0-.85.32,1.52,1.52,0,0,0-.4,1h2.47a1.5,1.5,0,0,0-.34-1A1.15,1.15,0,0,0,42.35,17.93Z"/><path class="cls-2" d="M53.24,24.46l-.55-1.1h-.06a3.14,3.14,0,0,1-1.18,1,3.83,3.83,0,0,1-1.56.27A2.47,2.47,0,0,1,48,23.9a2.75,2.75,0,0,1-.67-2,2.29,2.29,0,0,1,.92-2A5.1,5.1,0,0,1,51,19.2l1.39,0V19a.9.9,0,0,0-1-1,5.91,5.91,0,0,0-2.32.62l-.83-1.9A8,8,0,0,1,51.87,16a3.6,3.6,0,0,1,2.49.79A2.86,2.86,0,0,1,55.24,19v5.47Zm-2.13-1.88a1.24,1.24,0,0,0,.89-.34,1.07,1.07,0,0,0,.38-.86v-.64l-.67,0c-.94,0-1.42.38-1.42,1S50.56,22.58,51.11,22.58Z"/><path class="cls-2" d="M67.43,24.46V19.93a2.76,2.76,0,0,0-.23-1.27.78.78,0,0,0-.73-.42,1,1,0,0,0-1,.56,4,4,0,0,0-.31,1.78v3.88H62.3V19.93a2.78,2.78,0,0,0-.22-1.27.74.74,0,0,0-.71-.42,1,1,0,0,0-1,.6,4.54,4.54,0,0,0-.31,2v3.65H57.19V16.12h2.17l.37,1h.17a2.14,2.14,0,0,1,1-.87,3.23,3.23,0,0,1,1.43-.3,2.81,2.81,0,0,1,2.53,1.09h.23a2.3,2.3,0,0,1,1-.8A3.16,3.16,0,0,1,67.41,16a2.88,2.88,0,0,1,2.19.75A3.31,3.31,0,0,1,70.31,19v5.42Z"/></g></g></svg>